<svg width="23" height="20" viewBox="0 0 23 20" fill="none" xmlns="http://www.w3.org/2000/svg">
<path d="M12.6553 19.1381C12.5157 19.1388 12.3774 19.1115 12.2485 19.058C12.1195 19.0045 12.0026 18.9258 11.9045 18.8264C11.7055 18.6272 11.5938 18.3572 11.5938 18.0756C11.5938 17.794 11.7055 17.524 11.9045 17.3248L19.6536 9.57561L11.9045 1.82644C11.7168 1.62503 11.6146 1.35863 11.6195 1.08337C11.6243 0.808108 11.7358 0.545479 11.9305 0.350811C12.1252 0.156142 12.3878 0.044634 12.6631 0.0397774C12.9383 0.0349207 13.2047 0.137095 13.4061 0.324775L21.9061 8.82477C22.1051 9.02399 22.2169 9.29404 22.2169 9.57561C22.2169 9.85717 22.1051 10.1272 21.9061 10.3264L13.4061 18.8264C13.3081 18.9258 13.1911 19.0045 13.0622 19.058C12.9332 19.1115 12.7949 19.1388 12.6553 19.1381Z" fill="white"/>
<path d="M21.1551 10.6381H1.32178C1.03998 10.6381 0.769734 10.5262 0.570476 10.3269C0.371219 10.1277 0.259277 9.85742 0.259277 9.57562C0.259277 9.29383 0.371219 9.02358 0.570476 8.82432C0.769734 8.62506 1.03998 8.51312 1.32178 8.51312H21.1551C21.4369 8.51312 21.7072 8.62506 21.9064 8.82432C22.1057 9.02358 22.2176 9.29383 22.2176 9.57562C22.2176 9.85742 22.1057 10.1277 21.9064 10.3269C21.7072 10.5262 21.4369 10.6381 21.1551 10.6381Z" fill="white"/>
</svg>
