<svg width="23" height="20" viewBox="0 0 23 20" fill="none" xmlns="http://www.w3.org/2000/svg">
<path d="M9.82125 0.561951C9.96085 0.561293 10.0992 0.588522 10.2281 0.64204C10.357 0.69556 10.474 0.774292 10.5721 0.873617C10.7711 1.07284 10.8828 1.34289 10.8828 1.62445C10.8828 1.90602 10.7711 2.17607 10.5721 2.37529L2.82291 10.1244L10.5721 17.8736C10.7598 18.075 10.8619 18.3414 10.8571 18.6167C10.8522 18.8919 10.7407 19.1546 10.546 19.3492C10.3514 19.5439 10.0887 19.6554 9.81349 19.6603C9.53823 19.6651 9.27183 19.563 9.07041 19.3753L0.570415 10.8753C0.371444 10.6761 0.259684 10.406 0.259684 10.1244C0.259684 9.84289 0.371444 9.57284 0.570415 9.37362L9.07042 0.873617C9.16851 0.774292 9.28546 0.69556 9.41439 0.64204C9.54333 0.588522 9.68165 0.561293 9.82125 0.561951Z" fill="white"/>
<path d="M1.32145 9.06195L21.1548 9.06195C21.4366 9.06195 21.7068 9.17389 21.9061 9.37315C22.1053 9.57241 22.2173 9.84266 22.2173 10.1245C22.2173 10.4062 22.1053 10.6765 21.9061 10.8758C21.7068 11.075 21.4366 11.187 21.1548 11.187L1.32145 11.1869C1.03966 11.1869 0.769407 11.075 0.57015 10.8757C0.370894 10.6765 0.258953 10.4062 0.258953 10.1244C0.258953 9.84266 0.370894 9.57241 0.570151 9.37315C0.769407 9.17389 1.03966 9.06195 1.32145 9.06195Z" fill="white"/>
</svg>
