<svg width="65" height="66" viewBox="0 0 65 66" fill="none" xmlns="http://www.w3.org/2000/svg">
<circle cx="32.6649" cy="33.1237" r="32.2405" fill="white"/>
<path d="M36.2135 21.9452C36.385 21.9452 36.5408 22.0543 36.6032 22.2153L37.7514 25.2704H43.4719C43.9292 25.2704 44.3032 25.6445 44.3032 26.1017V41.0654C44.3032 41.5227 43.9292 41.8967 43.4719 41.8967H21.8577C21.4005 41.8967 21.0264 41.5227 21.0264 41.0654V26.1017C21.0264 25.6445 21.4005 25.2704 21.8577 25.2704H27.5834L28.6277 22.4855C28.7472 22.1634 29.059 21.9452 29.4071 21.9452H36.2135ZM36.2135 20.2825H29.4071C28.368 20.2825 27.4379 20.9268 27.0742 21.8984L26.43 23.6078H21.8577C20.4809 23.6078 19.3638 24.7249 19.3638 26.1017V41.0654C19.3638 42.4423 20.4809 43.5594 21.8577 43.5594H43.4719C44.8488 43.5594 45.9659 42.4423 45.9659 41.0654V26.1017C45.9659 24.7249 44.8488 23.6078 43.4719 23.6078H38.8997L38.1567 21.6334C37.8554 20.8177 37.0812 20.2825 36.2135 20.2825ZM32.6648 39.8185C29.2253 39.8185 26.43 37.0232 26.43 33.5836C26.43 30.144 29.2253 27.3487 32.6648 27.3487C36.1044 27.3487 38.8997 30.144 38.8997 33.5836C38.8997 37.0232 36.1044 39.8185 32.6648 39.8185ZM32.6648 29.0113C30.1449 29.0113 28.0926 31.0637 28.0926 33.5836C28.0926 36.1035 30.1449 38.1558 32.6648 38.1558C35.1848 38.1558 37.2371 36.1035 37.2371 33.5836C37.2371 31.0637 35.1848 29.0113 32.6648 29.0113Z" fill="#0055FF"/>
</svg>
